<?xml version="1.0" standalone="no"?>
<!DOCTYPE svg PUBLIC "-//W3C//DTD SVG 20010904//EN"
 "http://www.w3.org/TR/2001/REC-SVG-20010904/DTD/svg10.dtd">
<svg version="1.0" xmlns="http://www.w3.org/2000/svg"
 width="700.000000pt" height="700.000000pt" viewBox="0 0 700.000000 700.000000"
 preserveAspectRatio="xMidYMid meet">
<metadata>
Created by potrace 1.14, written by Peter Selinger 2001-2017
</metadata>
<g transform="translate(0.000000,700.000000) scale(0.100000,-0.100000)"
fill="#000000" stroke="none">
<path d="M1636 5930 c-96 -38 -164 -102 -209 -197 l-22 -48 -3 -1792 -2 -1793
2100 0 2100 0 -2 1793 -3 1792 -29 59 c-37 76 -96 135 -172 172 l-59 29 -1825
2 c-1773 2 -1826 2 -1874 -17z m2749 -967 c26 -15 316 -307 330 -334 7 -11 10
-30 9 -42 -1 -12 -3 -30 -3 -41 -1 -11 -147 -164 -347 -362 -190 -188 -518
-514 -729 -722 -407 -405 -411 -408 -478 -381 -29 11 -835 811 -873 866 -21
29 -23 72 -7 106 13 26 200 218 301 310 48 42 99 50 142 20 14 -9 126 -119
250 -244 l226 -227 519 515 c286 283 533 523 548 533 30 19 79 20 112 3z"/>
<path d="M253 2785 c-102 -31 -176 -96 -222 -195 l-26 -55 0 -610 0 -610 26
-55 c14 -30 38 -70 54 -88 34 -41 116 -94 170 -110 31 -9 778 -12 3239 -12
3604 0 3265 -8 3373 79 43 35 67 65 93 115 l35 69 0 611 0 611 -33 67 c-38 77
-92 130 -171 167 l-56 26 -392 3 -393 3 0 -350 0 -351 135 0 c144 0 183 -10
205 -49 5 -11 10 -69 10 -130 0 -109 0 -110 -31 -140 l-30 -31 -2730 0 c-2951
0 -2770 -3 -2799 49 -13 25 -13 227 0 252 22 39 61 49 205 49 l135 0 0 350 0
350 -377 -1 c-283 0 -389 -4 -420 -14z"/>
</g>
</svg>
